<svg width="27" height="25" viewBox="0 0 27 25" fill="none" xmlns="http://www.w3.org/2000/svg">
<g id="Vector">
<mask id="path-1-outside-1_1800_368" maskUnits="userSpaceOnUse" x="0" y="0" width="27" height="25" fill="black">
<rect fill="white" width="27" height="25"/>
<path d="M16.7814 13.2144H10.2181C10.0251 13.2144 9.86829 13.3713 9.86829 13.5643V24.444C9.86829 24.637 10.0251 24.7938 10.2181 24.7938H16.7808C16.9738 24.7938 17.1307 24.637 17.1307 24.444L17.1309 13.5643C17.1309 13.3713 16.9741 13.2144 16.781 13.2144H16.7814ZM10.5685 18.6306V17.5156H16.432V18.6312H10.5685V18.6306ZM16.4315 19.3305V20.4461H10.5685V19.3305H16.4315ZM10.5685 16.8159V15.7003H16.432V16.8159H10.5685ZM10.5685 21.1459H16.432V22.2615H10.5685V21.1459ZM16.4315 13.9141V15.0007L10.5685 15.0004V13.9139L16.4315 13.9141ZM10.5685 24.0935V22.961H16.432L16.4318 24.0935H10.5685ZM25.6502 7.77423H19.0875C18.8944 7.77423 18.7376 7.93105 18.7376 8.12407L18.7374 24.4434C18.7374 24.6364 18.8942 24.7932 19.0873 24.7932H25.65C25.843 24.7932 25.9998 24.6364 25.9998 24.4434L26 8.12407C26 7.93105 25.8438 7.77423 25.6502 7.77423ZM19.4374 16.8149V15.6993H25.3008V16.8149H19.4374ZM25.3008 17.5146V18.6302H19.4374V17.5146H25.3008ZM19.4374 15V13.8844H25.3008V15H19.4374ZM19.4374 13.1848V12.0691H25.3008V13.1848H19.4374ZM19.4374 19.3299H25.3008V20.4455H19.4374V19.3299ZM25.3008 11.3691H19.4374V10.2535H25.3008V11.3691ZM19.4374 21.1455H25.3008V22.2611H19.4374V21.1455ZM25.3008 8.47362V9.55362H19.4374V8.47362H25.3008ZM19.4374 24.0931V22.9606H25.3008V24.0931H19.4374ZM7.91254 18.6535H1.34984C1.15682 18.6535 1 18.8103 1 19.0033V24.4435C1 24.6365 1.15681 24.7933 1.34984 24.7933H7.91254C8.10556 24.7933 8.26238 24.6365 8.26238 24.4435V19.0039C8.26258 18.8106 8.10556 18.6538 7.91254 18.6538V18.6535ZM1.69974 21.1664H7.56316V22.2796H1.69974V21.1664ZM7.56316 19.3534V20.4666H1.69974V19.3534H7.56316ZM1.69974 24.0933V22.9801H7.56316V24.0933H1.69974ZM14.6634 9.66822L22.632 1.69967H18.9719C18.7789 1.69967 18.6221 1.54286 18.6221 1.34984C18.6221 1.15681 18.7789 1 18.9719 1H23.4769C23.6699 1 23.8267 1.15681 23.8267 1.34984V5.8548C23.8267 6.04781 23.6699 6.20463 23.4769 6.20463C23.2839 6.20463 23.127 6.04782 23.127 5.8548V2.19475L14.9112 10.4106C14.7747 10.5471 14.5532 10.5471 14.4161 10.4106L11.8158 7.81028L3.77172 15.8548C3.70358 15.923 3.61368 15.9576 3.52439 15.9576C3.4351 15.9576 3.34541 15.9232 3.27707 15.8548C3.14059 15.7184 3.14059 15.4969 3.27707 15.3604L11.569 7.0685C11.7054 6.93203 11.9269 6.93203 12.064 7.0685L14.6634 9.66822Z"/>
</mask>
<path d="M16.7814 13.2144H10.2181C10.0251 13.2144 9.86829 13.3713 9.86829 13.5643V24.444C9.86829 24.637 10.0251 24.7938 10.2181 24.7938H16.7808C16.9738 24.7938 17.1307 24.637 17.1307 24.444L17.1309 13.5643C17.1309 13.3713 16.9741 13.2144 16.781 13.2144H16.7814ZM10.5685 18.6306V17.5156H16.432V18.6312H10.5685V18.6306ZM16.4315 19.3305V20.4461H10.5685V19.3305H16.4315ZM10.5685 16.8159V15.7003H16.432V16.8159H10.5685ZM10.5685 21.1459H16.432V22.2615H10.5685V21.1459ZM16.4315 13.9141V15.0007L10.5685 15.0004V13.9139L16.4315 13.9141ZM10.5685 24.0935V22.961H16.432L16.4318 24.0935H10.5685ZM25.6502 7.77423H19.0875C18.8944 7.77423 18.7376 7.93105 18.7376 8.12407L18.7374 24.4434C18.7374 24.6364 18.8942 24.7932 19.0873 24.7932H25.65C25.843 24.7932 25.9998 24.6364 25.9998 24.4434L26 8.12407C26 7.93105 25.8438 7.77423 25.6502 7.77423ZM19.4374 16.8149V15.6993H25.3008V16.8149H19.4374ZM25.3008 17.5146V18.6302H19.4374V17.5146H25.3008ZM19.4374 15V13.8844H25.3008V15H19.4374ZM19.4374 13.1848V12.0691H25.3008V13.1848H19.4374ZM19.4374 19.3299H25.3008V20.4455H19.4374V19.3299ZM25.3008 11.3691H19.4374V10.2535H25.3008V11.3691ZM19.4374 21.1455H25.3008V22.2611H19.4374V21.1455ZM25.3008 8.47362V9.55362H19.4374V8.47362H25.3008ZM19.4374 24.0931V22.9606H25.3008V24.0931H19.4374ZM7.91254 18.6535H1.34984C1.15682 18.6535 1 18.8103 1 19.0033V24.4435C1 24.6365 1.15681 24.7933 1.34984 24.7933H7.91254C8.10556 24.7933 8.26238 24.6365 8.26238 24.4435V19.0039C8.26258 18.8106 8.10556 18.6538 7.91254 18.6538V18.6535ZM1.69974 21.1664H7.56316V22.2796H1.69974V21.1664ZM7.56316 19.3534V20.4666H1.69974V19.3534H7.56316ZM1.69974 24.0933V22.9801H7.56316V24.0933H1.69974ZM14.6634 9.66822L22.632 1.69967H18.9719C18.7789 1.69967 18.6221 1.54286 18.6221 1.34984C18.6221 1.15681 18.7789 1 18.9719 1H23.4769C23.6699 1 23.8267 1.15681 23.8267 1.34984V5.8548C23.8267 6.04781 23.6699 6.20463 23.4769 6.20463C23.2839 6.20463 23.127 6.04782 23.127 5.8548V2.19475L14.9112 10.4106C14.7747 10.5471 14.5532 10.5471 14.4161 10.4106L11.8158 7.81028L3.77172 15.8548C3.70358 15.923 3.61368 15.9576 3.52439 15.9576C3.4351 15.9576 3.34541 15.9232 3.27707 15.8548C3.14059 15.7184 3.14059 15.4969 3.27707 15.3604L11.569 7.0685C11.7054 6.93203 11.9269 6.93203 12.064 7.0685L14.6634 9.66822Z" fill="#5D6679"/>
<path d="M16.7814 13.2144H10.2181C10.0251 13.2144 9.86829 13.3713 9.86829 13.5643V24.444C9.86829 24.637 10.0251 24.7938 10.2181 24.7938H16.7808C16.9738 24.7938 17.1307 24.637 17.1307 24.444L17.1309 13.5643C17.1309 13.3713 16.9741 13.2144 16.781 13.2144H16.7814ZM10.5685 18.6306V17.5156H16.432V18.6312H10.5685V18.6306ZM16.4315 19.3305V20.4461H10.5685V19.3305H16.4315ZM10.5685 16.8159V15.7003H16.432V16.8159H10.5685ZM10.5685 21.1459H16.432V22.2615H10.5685V21.1459ZM16.4315 13.9141V15.0007L10.5685 15.0004V13.9139L16.4315 13.9141ZM10.5685 24.0935V22.961H16.432L16.4318 24.0935H10.5685ZM25.6502 7.77423H19.0875C18.8944 7.77423 18.7376 7.93105 18.7376 8.12407L18.7374 24.4434C18.7374 24.6364 18.8942 24.7932 19.0873 24.7932H25.65C25.843 24.7932 25.9998 24.6364 25.9998 24.4434L26 8.12407C26 7.93105 25.8438 7.77423 25.6502 7.77423ZM19.4374 16.8149V15.6993H25.3008V16.8149H19.4374ZM25.3008 17.5146V18.6302H19.4374V17.5146H25.3008ZM19.4374 15V13.8844H25.3008V15H19.4374ZM19.4374 13.1848V12.0691H25.3008V13.1848H19.4374ZM19.4374 19.3299H25.3008V20.4455H19.4374V19.3299ZM25.3008 11.3691H19.4374V10.2535H25.3008V11.3691ZM19.4374 21.1455H25.3008V22.2611H19.4374V21.1455ZM25.3008 8.47362V9.55362H19.4374V8.47362H25.3008ZM19.4374 24.0931V22.9606H25.3008V24.0931H19.4374ZM7.91254 18.6535H1.34984C1.15682 18.6535 1 18.8103 1 19.0033V24.4435C1 24.6365 1.15681 24.7933 1.34984 24.7933H7.91254C8.10556 24.7933 8.26238 24.6365 8.26238 24.4435V19.0039C8.26258 18.8106 8.10556 18.6538 7.91254 18.6538V18.6535ZM1.69974 21.1664H7.56316V22.2796H1.69974V21.1664ZM7.56316 19.3534V20.4666H1.69974V19.3534H7.56316ZM1.69974 24.0933V22.9801H7.56316V24.0933H1.69974ZM14.6634 9.66822L22.632 1.69967H18.9719C18.7789 1.69967 18.6221 1.54286 18.6221 1.34984C18.6221 1.15681 18.7789 1 18.9719 1H23.4769C23.6699 1 23.8267 1.15681 23.8267 1.34984V5.8548C23.8267 6.04781 23.6699 6.20463 23.4769 6.20463C23.2839 6.20463 23.127 6.04782 23.127 5.8548V2.19475L14.9112 10.4106C14.7747 10.5471 14.5532 10.5471 14.4161 10.4106L11.8158 7.81028L3.77172 15.8548C3.70358 15.923 3.61368 15.9576 3.52439 15.9576C3.4351 15.9576 3.34541 15.9232 3.27707 15.8548C3.14059 15.7184 3.14059 15.4969 3.27707 15.3604L11.569 7.0685C11.7054 6.93203 11.9269 6.93203 12.064 7.0685L14.6634 9.66822Z" stroke="#5D6679" stroke-width="0.2" mask="url(#path-1-outside-1_1800_368)"/>
</g>
</svg>
